#!OML:ASF H:\Pregnant\Project 1\Capture day 1\Session 1\femalepreg.ASF
:FULLY-SPECIFIED
:DEGREES
455
root 4.9741 3.22058 27.9971 143.002 -23.6998 -147.43
lowerback 51.9427 6.63385 10.0817
upperback 10.1803 9.58285 7.26392
thorax -9.12936 1.91506 -0.457421
lowerneck -22.43 -1.99617 0.267978
upperneck 31.3751 -4.77014 1.87853
head 14.6574 -2.02971 -0.258215
rclavicle -3.49861e-014 -2.38542e-014
rhumerus 64.7308 39.9643 -6.92089
rradius 60.2943
rwrist -17.8815
rhand -16.7894 -19.85
rfingers 7.12502
rthumb 9.43858 -49.6186
lclavicle -3.49861e-014 -2.38542e-014
lhumerus -36.0257 -6.37796 74.4993
lradius 47.8351
lwrist 89.1376
lhand -56.7691 20.616
lfingers 7.12502
lthumb -29.071 48.3676
rfemur -110.474 -23.9443 38.4909
rtibia 118.491
rfoot 2.89862 26.116
rtoes -18.4548
lfemur -33.3466 127.971 12.9161
ltibia 146.717
lfoot 73.4784 -14.1425
ltoes 51.3807
456
root 4.99243 3.29976 28.0815 139.199 -23.1371 -148.034
lowerback 57.8863 6.46924 10.6288
upperback 9.49776 9.72408 7.00826
thorax -10.3997 1.50673 -0.81782
lowerneck -22.2149 -2.01942 0.488313
upperneck 31.5708 -4.91892 1.80825
head 14.6919 -2.08843 -0.354188
rclavicle -3.18055e-015 6.36111e-015
rhumerus 64.0128 39.8891 -7.46549
rradius 60.3626
rwrist -17.8229
rhand -16.9623 -19.8522
rfingers 7.12502
rthumb 9.27174 -49.6284
lclavicle -3.18055e-015 6.36111e-015
lhumerus -36.3467 -6.70522 74.2947
lradius 48.2864
lwrist 89.5234
lhand -56.8795 21.4105
lfingers 7.12502
lthumb -29.1764 49.1438
rfemur -104.317 -25.606 37.0314
rtibia 117.224
rfoot 2.31367 26.6246
rtoes -19.1174
lfemur -41.849 125.509 5.84046
ltibia 145.367
lfoot 76.1457 -13.5852
ltoes 52.1979
457
root 5.00798 3.4039 28.1833 134.233 -22.3852 -148.937
lowerback 66.0501 6.22784 11.433
upperback 8.21691 9.99994 6.56853
thorax -12.0052 0.956531 -1.30575
lowerneck -21.9494 -2.0362 0.72341
upperneck 31.7618 -5.06727 1.74206
head 14.7124 -2.14632 -0.450239
rclavicle -3.4191e-014 -1.90833e-014
rhumerus 63.2651 39.881 -8.02686
rradius 60.3937
rwrist -17.8108
rhand -17.0195 -19.8623
rfingers 7.12502
rthumb 9.21657 -49.6409
lclavicle -3.4191e-014 -1.90833e-014
lhumerus -36.7016 -7.04575 74.0848
lradius 48.7455
lwrist 89.9294
lhand -57.012 22.158
lfingers 7.12502
lthumb -29.3029 49.8693
rfemur -95.9422 -27.3328 34.5818
rtibia 115.503
rfoot 1.54666 27.2978
rtoes -19.7887
lfemur -125.937 236.483 175.189
ltibia 216.67
lfoot 79.7651 -167.907
ltoes 53.328
458
root 5.0188 3.51467 28.2899 129.029 -21.6249 -150.17
lowerback 74.9874 5.94316 12.258
upperback 6.47769 10.2897 5.93809
thorax -13.5611 0.32867 -1.79901
lowerneck -21.6676 -2.05429 0.95729
upperneck 31.9485 -5.21583 1.67388
head 14.7269 -2.20518 -0.546538
rclavicle 7.63333e-014 4.45278e-014
rhumerus 62.4897 39.9112 -8.5942
rradius 60.3784
rwrist -17.8383
rhand -16.9853 -19.8506
rfingers 7.12502
rthumb 9.24953 -49.6277
lclavicle 7.63333e-014 4.45278e-014
lhumerus -37.0611 -7.38757 73.8843
lradius 49.2062
lwrist 90.3498
lhand -57.156 22.7813
lfingers 7.12502
lthumb -29.4404 50.4685
rfemur -86.8151 -28.6367 31.4312
rtibia 113.538
rfoot 0.903475 27.9176
rtoes -20.3814
lfemur -112.762 236.747 163.081
ltibia 219.242
lfoot 83.5936 -170.268
ltoes 54.5664
459
root 5.02693 3.60845 28.3819 124.72 -21.1043 -151.525
lowerback 82.6592 5.69559 12.8225
upperback 4.75688 10.4287 5.2486
thorax -14.7751 -0.252238 -2.18003
lowerneck -21.4186 -2.07075 1.17065
upperneck 32.1519 -5.36003 1.61826
head 14.757 -2.26201 -0.634181
rclavicle -1.15295e-013 -4.45278e-014
rhumerus 61.7026 39.9758 -9.17514
rradius 60.3182
rwrist -17.8906
rhand -16.844 -19.7993
rfingers 7.12502
rthumb 9.38586 -49.5703
lclavicle -1.15295e-013 -4.45278e-014
lhumerus -37.4284 -7.71893 73.6793
lradius 49.669
lwrist 90.7615
lhand -57.3123 23.3162
lfingers 7.12502
lthumb -29.5897 50.977
rfemur -79.0845 -29.3805 28.3696
rtibia 111.756
rfoot 0.617523 28.3256
rtoes -20.9
lfemur -103.049 237.813 153.712
ltibia 221.81
lfoot 86.5219 -174.173
ltoes 55.6407
460
root 5.03701 3.66991 28.4456 121.818 -20.8558 -152.69
lowerback 87.8603 5.60133 13.0458
upperback 3.5202 10.4234 4.7207
thorax -15.5367 -0.67676 -2.37395
lowerneck -21.2219 -2.0921 1.34533
upperneck 32.3585 -5.49524 1.56497
head 14.801 -2.31738 -0.713443
rclavicle -9.85972e-014 -2.22639e-014
rhumerus 60.9222 40.0404 -9.71581
rradius 60.2297
rwrist -17.9711
rhand -16.6065 -19.7357
rfingers 7.12502
rthumb 9.61505 -49.4963
lclavicle -9.85972e-014 -2.22639e-014
lhumerus -37.7676 -8.02365 73.5002
lradius 50.1233
lwrist 91.1335
lhand -57.4679 23.8082
lfingers 7.12502
lthumb -29.7381 51.4425
rfemur -73.8728 -29.8167 26.0705
rtibia 110.484
rfoot 0.641596 28.5006
rtoes -21.3207
lfemur -96.4619 238.919 146.867
ltibia 223.781
lfoot 88.3842 -177.956
ltoes 56.4483
